<svg width="96" height="96" viewBox="0 0 96 96" fill="none" xmlns="http://www.w3.org/2000/svg">
<circle cx="48" cy="48" r="48" fill="#FCF9D3"/>
<path fill-rule="evenodd" clip-rule="evenodd" d="M48 93.12C72.9191 93.12 93.12 72.9191 93.12 48C93.12 23.0809 72.9191 2.88 48 2.88C23.0809 2.88 2.88 23.0809 2.88 48C2.88 72.9191 23.0809 93.12 48 93.12ZM48 96C74.5097 96 96 74.5097 96 48C96 21.4903 74.5097 0 48 0C21.4903 0 0 21.4903 0 48C0 74.5097 21.4903 96 48 96Z" fill="#1B1B1B"/>
<path d="M74.1749 44.0729C73.541 39.9116 71.4792 35.5704 68.6668 32.4506C65.2983 28.7249 61.1825 26.9864 57.0667 27.5472C47.0635 28.901 44.9507 37.5779 43.077 45.2153L43.0706 45.2352L43.0541 45.3134C41.3879 52.0771 39.95 57.9166 33.8391 58.7342C29.808 59.2915 26.7123 53.8778 26.1121 49.9385L26.0275 49.3836L26.0183 49.385C25.3809 44.1455 26.669 39.1237 29.8413 34.4203L29.5089 40.4983L32.198 39.4545L32.9859 27.2988L21.6 32.6196L21.6963 35.3017L27.4125 32.5762C23.7022 38.0333 22.1828 44.084 23.0465 50.1879L23.0944 50.5023C23.7637 54.8948 25.6743 59.4861 28.212 62.7897C31.3593 66.9277 35.3566 69.0059 39.4585 68.6648C43.9623 68.2908 47.3619 66.259 49.8557 62.4442C52.0105 59.1354 53.1685 55.0607 54.2894 51.1145L54.2944 51.0853C56.2802 44.1216 57.993 38.0982 64.1383 37.5688C66.4863 37.3908 68.1389 38.8611 69.1072 40.1234C70.1946 41.5474 71.028 43.5399 71.3183 45.4449C71.3535 45.6761 71.3781 45.8994 71.4026 46.1228C71.8088 50.9623 68.931 57.3427 65.8753 61.6309L66.2157 55.4193L63.5266 56.4629L62.7386 68.6187L74.1232 63.2886L74.0268 60.6067L68.416 63.2782C72.3958 57.6468 75.2395 51.0602 74.1749 44.0729ZM63.9201 34.5837C60.1987 34.8762 57.3764 36.6593 55.3041 40.0124C53.4792 42.9397 52.4241 46.6961 51.4061 50.3238L51.3881 50.3926C50.2795 54.2329 49.2352 57.8741 47.4382 60.6742C45.4496 63.7685 42.8422 65.3484 39.2346 65.6426C35.6576 65.9511 32.8995 63.684 31.1012 61.5073C32.1149 61.826 33.1901 61.9271 34.2855 61.7887C37.9651 61.2847 40.6903 59.4219 42.6253 56.0993C44.3114 53.193 45.2021 49.5374 46.0636 45.9999C47.8578 38.6489 49.5514 31.6917 57.5224 30.6003C60.5797 30.1723 63.7545 31.5716 66.4491 34.539C66.54 34.6387 66.6309 34.7384 66.7217 34.8381C65.7826 34.5743 64.8611 34.4876 63.9201 34.5837Z" fill="#1B1B1B"/>
</svg>
